<svg xmlns="http://www.w3.org/2000/svg" viewBox="0 0 560 150" role="img" aria-label="EASYFIX Equine">
  <title>EASYFIX Equine</title>
  <!--
    PLACEHOLDER MARK. Replace this whole file with the official EASYFIX artwork
    (same filename, any SVG or PNG) and the rail header and the watermark at the
    foot of the rail both pick it up — they render this one asset.
  -->
  <path d="M332 106 H520 a16 16 0 0 1 0 32 H332 z" fill="#CE0E2D"/>
  <path d="M30 22 H296 a18 18 0 0 1 18 18 v82 a18 18 0 0 1 -18 18 H30
           A18 18 0 0 1 12 122 V40 A18 18 0 0 1 30 22 z" fill="#4A90D2"/>
  <rect x="36" y="38" width="176" height="86" fill="#FFFFFF"/>
  <path d="M52 50 h66 v15 h-48 v13 h39 v15 h-39 v14 h48 v15 h-66 z" fill="#141414"/>
  <path d="M128 50 h64 v15 h-46 v14 h38 v15 h-38 v28 h-18 z" fill="#141414"/>
</svg>
