<?xml version="1.0" encoding="UTF-8"?>
<svg xmlns="http://www.w3.org/2000/svg" viewBox="0 0 567 210" width="567" height="210">
<path d="M270.27 123.67C270.27 118.56 270.27 113.44 270.27 108.33C270.46 108 270.64 107.67 270.83 107.33C278.2 110.22 282.02 114.39 290.84 113.01C294.07 112.5 298.33 111.51 298.99 107.49C300.4 98.85 292.02 96.4 285.56 93.94C277.23 90.76 269.45 84.33 268.01 75.16C265.43 58.66 282.05 46.95 297.18 49.32C300.72 49.88 306.38 49.66 309.17 52.33C309.71 55.06 310.02 67.04 308.5 69C303.57 65.91 297.58 63.39 291.51 64.34C286.86 65.07 282.89 68.96 285.18 73.99C287.23 78.52 295.27 80.47 299.44 82.06C309.79 86.01 318.27 96.79 315.94 108.44C313.09 122.68 298.05 130.75 284.1 128.06C281.49 127.56 270.85 126.84 270.27 123.67ZM144.33 50.27C158.78 50.27 173.22 50.27 187.67 50.27C189.31 51.11 188.67 62.13 188.67 64.5C188.28 64.89 187.89 65.28 187.5 65.67C178.33 65.78 169.17 65.9 160 66.02C160 71.01 160 75.99 160 80.98C168.83 81.21 177.67 81.44 186.5 81.67C186.56 86.5 186.61 91.33 186.67 96.17C177.78 96.45 168.89 96.74 160 97.02C158.97 98.55 159.65 106.18 159.65 108.5C159.65 109.62 159.3 111.64 160.23 111.99C170.04 112.09 179.85 112.18 189.67 112.27C189.67 117.23 189.67 122.2 189.67 127.17C186.28 127.84 182.31 127.33 178.83 127.33C170.94 127.33 163.06 127.33 155.17 127.33C152.03 127.33 145.83 128.52 143.33 126.5C143.33 107.28 143.33 88.06 143.33 68.83C143.33 64.28 143.33 59.72 143.33 55.17C143.33 53.67 142.84 51.04 144.33 50.27ZM221.5 50.33C226.5 50.33 231.5 50.33 236.5 50.33C245.33 75.72 254.17 101.11 263 126.5C261.1 127.97 257.8 127.33 255.5 127.33C253.25 127.33 247.41 128.39 245.68 126.82C244.38 125.66 244.2 122.78 243.6 121.23C242.03 117.09 240.36 108.9 238 105.67C231.78 105.67 225.56 105.67 219.33 105.67C216.72 112.89 214.11 120.1 211.5 127.31C206 127.31 200.5 127.31 195 127.31C195.04 122.15 198.52 116.69 199.94 111.77C203.2 100.47 208.27 89.56 211.06 78.23C211.69 75.67 213.31 73.32 213.94 70.77C214.94 66.69 218.87 52.97 221.5 50.33ZM347.5 78.33C351.18 73.8 355.25 64.6 357.94 59.1C358.94 57.05 360.31 52.04 362.34 50.84C364.56 49.54 368.66 50.33 371.17 50.33C373.37 50.33 379.77 49.29 381 51.17C375.61 61.94 368.82 72.2 362.82 82.66C360.55 86.62 356.82 90.82 355.4 95.23C354.83 96.97 355.33 99.66 355.33 101.5C355.33 107.86 356.54 121.85 355 127.3C349.72 127.3 344.44 127.3 339.17 127.3C337.97 124.95 338.67 121.14 338.67 118.5C338.67 112.72 339.8 100.23 338.6 95.23C337.49 90.55 333.39 85.97 331.18 81.66C326.03 71.6 320.74 61.19 314.67 51.5C316.1 49.22 321.95 50.33 324.5 50.33C326.76 50.33 330.6 49.6 332.66 50.51C334.72 51.43 336.37 56.36 337.17 58.33C338.93 62.73 344.72 74.9 347.5 78.33ZM386.27 127C386.27 101.67 386.27 76.33 386.27 51C386.83 49.89 395.05 50.33 396.83 50.33C406.03 50.33 422.16 49 430.5 50.67C430.56 55.5 430.61 60.33 430.67 65.17C421.44 65.39 412.22 65.61 403 65.83C402.94 71 402.89 76.17 402.83 81.33C405.48 82.6 418.41 81.67 422.17 81.67C424.32 81.67 427.22 81.12 429 82.5C428.89 87.06 428.78 91.61 428.67 96.17C420.11 96.39 411.56 96.61 403 96.83C402.89 106.72 402.78 116.61 402.67 126.5C402.28 126.89 401.89 127.28 401.5 127.67C397.72 127.67 393.94 127.67 390.17 127.67C388.95 127.67 386.85 128.14 386.27 127ZM451.73 51C451.73 76.33 451.73 101.67 451.73 127C451.15 128.14 449.05 127.67 447.83 127.67C444.06 127.67 440.28 127.67 436.5 127.67C436.11 127.28 435.72 126.89 435.33 126.5C435.33 101.5 435.33 76.5 435.33 51.5C435.72 51.11 436.11 50.72 436.5 50.33C440.28 50.33 444.06 50.33 447.83 50.33C449.05 50.33 451.15 49.86 451.73 51ZM476.5 50.67C480.83 58.33 485.17 66 489.5 73.67C491.78 72.24 492.86 68.64 494.18 66.34C497.07 61.31 499.94 55.24 503.5 50.67C506.25 50.12 520.73 49.57 522.33 51.17C520.56 55.69 517 60.4 514.18 64.34C511.09 68.66 508.73 73.55 505.82 77.99C504.43 80.12 499.54 86.49 500.01 88.82C500.65 92.04 504.21 95.53 505.82 98.34C509.43 104.63 513.19 111.11 517.18 117.32C518.77 119.8 523.11 124.85 522.67 127.66C516.61 127.66 510.56 127.66 504.5 127.66C499.5 119.44 494.5 111.22 489.5 103C484.83 111.11 480.17 119.22 475.5 127.33C471.07 128.22 466.05 127.67 461.5 127.67C459.64 127.67 457.73 128.2 456.67 126.5C464.33 113.83 472 101.17 479.67 88.5C472.33 76.17 465 63.83 457.67 51.5C458.73 49.8 460.64 50.33 462.5 50.33C467.05 50.33 472.07 49.78 476.5 50.67ZM541.56 50.73C553.58 48.42 556.15 70.21 542.5 70.21C529.93 70.21 528.95 53.16 541.56 50.73ZM540.56 52.73C529.97 54.77 534.47 71.48 545.1 67.94C554.07 64.95 549.79 50.95 540.56 52.73ZM545 60.5C545.5 62.25 546 63.99 546.5 65.74C545.83 65.74 545.17 65.74 544.5 65.74C543.52 64.32 543.67 61.52 541.33 61.83C541.06 63.14 540.78 64.44 540.5 65.74C539.83 65.74 539.17 65.74 538.5 65.74C537.93 63.64 536.81 56.84 538.89 55.39C541.97 53.23 548.6 56.9 545 60.5ZM541.11 57C541.11 58 541.11 59 541.11 60C542.61 59.93 543.44 59.6 544 58.17C543 57.17 542.55 57 541.11 57ZM102.58 73.97C86.11 74.03 69.64 74.09 53.17 74.15C53.16 78.71 53.16 83.27 53.15 87.83C64.83 88.05 76.5 88.27 88.17 88.49C88.15 93.27 88.12 98.05 88.1 102.83C76.5 103.06 64.89 103.28 53.28 103.5C53.24 107.98 53.21 112.46 53.17 116.94C64.76 117.13 76.35 117.31 87.94 117.5C87.97 122.56 88.01 127.61 88.05 132.67C71.42 132.52 54.79 132.38 38.17 132.24C38.17 108.17 38.17 84.09 38.17 60.02C59.63 59.96 81.09 59.9 102.55 59.83C102.56 64.55 102.57 69.26 102.58 73.97ZM228.5 76.67C226.94 81.42 225.39 86.18 223.83 90.94C227.11 90.94 230.39 90.94 233.67 90.94C231.94 86.18 230.22 81.42 228.5 76.67ZM87.67 117.92C76.33 117.92 65 117.92 53.67 117.92C65 117.92 76.33 117.92 87.67 117.92ZM392 201.5C394.63 203.55 396.94 201.17 399.5 201C400.22 202.17 400.94 203.33 401.67 204.5C397.48 208.68 390.75 207.71 386.34 204.49C385.06 203.55 384.51 201.88 383.17 201C374.09 201 372.62 189.64 375.06 183.23C377.93 175.71 386.81 172.81 394.16 174.01C404.73 175.74 405.41 188.46 400.16 195.66C398.01 198.6 394.65 199.35 392 201.5ZM415.5 174.13C416.32 179.24 413 184.67 413 189.83C413 192.19 412.77 195.03 415.56 195.94C425.13 199.04 426.52 179.94 427.33 174.15C429.44 174.15 431.56 174.15 433.67 174.15C433.4 179.57 430.72 193.91 426.94 197.77C422.22 202.59 410.63 203.91 407.06 196.77C404.19 191.03 408.47 180.34 409.33 174.13C411.39 174.13 413.44 174.13 415.5 174.13ZM439.5 174.01C441.22 174.01 442.94 174.01 444.67 174.01C445.55 176.29 444.35 177.99 444.01 180.18C443.17 185.54 441.85 196.59 439.67 201.17C437.89 201.52 435.02 201.85 433.67 200.5C434.04 194.86 436.12 189.38 436.99 183.82C437.46 180.83 437.48 176.44 439.5 174.01ZM455.5 174C458.83 179.33 462.17 184.67 465.5 190C467.97 186.83 466.51 177.6 469.5 174.01C471.22 174.01 472.94 174.01 474.67 174.01C475.64 176.52 474 180.68 473.4 183.23C472.1 188.67 470.37 194.93 470 200.5C468.7 201.51 465.78 201.87 464.34 200.82C462.88 199.76 456.61 188.23 455.5 186C451.08 188.21 455.63 201.33 448.5 201.33C447.19 201.33 446.05 201.32 445 200.5C446.54 197.42 448.38 186.37 448.99 182.49C449.28 180.64 449.27 175.78 450.68 174.51C451.77 173.52 454.15 174 455.5 174ZM354.33 174.27C360.78 174.27 367.22 174.27 373.67 174.27C373.28 176.07 372.89 177.87 372.5 179.67C368.17 179.67 363.83 179.67 359.5 179.67C359 181.39 358.5 183.11 358 184.83C361.94 185 365.89 185.17 369.83 185.33C369.5 186.89 369.17 188.44 368.83 190C365.06 190 361.28 190 357.5 190C356.42 191.34 355.59 194.27 356.33 195.83C360.83 196 365.33 196.17 369.83 196.33C369.59 197.8 369.35 199.27 369.1 200.73C362.29 200.73 355.48 200.73 348.67 200.73C347.95 199.44 349.23 196 349.66 194.49C350.99 189.71 351.45 184.61 352.6 179.77C353.04 177.96 352.77 175.57 354.33 174.27ZM481.33 174.27C487.44 174.27 493.56 174.27 499.67 174.27C500 174.46 500.33 174.64 500.67 174.83C500.39 176.22 500.11 177.61 499.83 179C495.84 181 490.32 178.97 486 179.83C485.78 181.5 485.56 183.17 485.33 184.83C489.22 185.06 493.11 185.28 497 185.5C496.67 186.94 496.33 188.39 496 189.83C492.06 189.89 488.11 189.94 484.17 190C483.72 191.89 483.28 193.78 482.83 195.67C487.56 195.94 492.28 196.22 497 196.5C496.5 198.11 496 199.72 495.5 201.33C491.52 201.33 477.64 202.56 475 200.5C476.78 191.94 478.56 183.39 480.33 174.83C480.67 174.64 481 174.46 481.33 174.27ZM388.9 179.4C381.31 180.86 375.61 193.64 385.23 195.94C398.31 199.06 401.35 177 388.9 179.4Z" fill="#ffffff" fill-rule="evenodd" stroke="#ffffff" stroke-width="0.25" stroke-linejoin="round"/>
<path d="M292.8 15.5C292.24 16.61 291.68 17.72 291.11 18.83C291.91 19.52 292.7 20.2 293.5 20.89C297.12 20.5 300.84 18.68 304.5 17.97C307.98 17.3 311.06 19.38 314.47 19.18C315.44 19.13 315.88 18.09 316.83 18.04C317.16 19.35 317.07 19.59 316.15 20.5C316.77 24.5 317.39 28.5 318 32.5C316.93 33.73 315.52 34.67 313.83 33.95C312.41 31.54 310.36 26.74 307.5 26.21C306.56 26.53 305.61 26.85 304.67 27.17C303.86 28.39 303.06 29.61 302.25 30.83C304.09 32.09 307.33 29.46 309.08 31.83C309.32 36.28 305.51 44.39 300.07 41.5C301.38 39.39 301.72 38.38 304.33 37.83C304.72 36.96 305.11 36.09 305.5 35.22C302.54 34.98 301.21 38.8 298.49 39.14C297.27 39.29 296.02 38.86 294.77 39.01C291.19 39.42 287.96 41.18 284.17 41.06C280.17 40.93 276.63 39.4 272.67 40.17C271.73 41.72 270.78 43.28 269.84 44.83C263.98 47.38 255.98 49.28 256.1 57.5C254.57 58.76 253.03 60.01 251.5 61.27C251.28 60.28 251.06 59.29 250.83 58.3C251.77 57.21 253.01 56.5 253.71 55.19C254.96 52.83 253.87 49.47 255.15 46.97C256.41 44.51 259.48 43.6 260.02 40.67C260.28 39.26 260.61 34.06 259.5 33.36C257.9 35.84 256.53 38.19 255.25 40.77C253.98 43.35 253.69 46.36 251.89 48.65C250.4 50.54 246.98 52.36 244.9 50.5C249.07 46.26 248.93 39.35 253.06 34.9C256.83 30.85 263.21 28.88 268.5 27.97C271.32 27.49 274.38 28.25 277.17 27.52C276.56 26.84 275.96 26.17 275.35 25.5C276.82 21.33 281.98 16.84 286.52 16.83C286.96 15.6 287.4 14.36 287.83 13.12C290.55 12 291.32 13.78 292.8 15.5ZM289.95 22.5C287.77 21.09 284.88 23.19 283.21 24.5C285.24 25.74 288.38 23.94 289.95 22.5ZM125.39 135.96C196.59 135.96 267.78 135.96 338.98 135.96C338.75 141.68 333.92 151.49 328.5 153.96C323.48 156.24 316.26 155.04 310.83 155.04C298.17 155.04 285.5 155.04 272.83 155.04C209.61 155.04 146.39 155.04 83.17 155.04C69.28 155.04 55.39 155.04 41.5 155.04C32.48 155.04 23.86 155.29 18.15 147.48C13.27 140.82 15.5 128.82 15.5 120.83C15.5 102.94 15.5 85.06 15.5 67.17C15.5 54.51 15.46 43.5 30.56 41.02C37.69 39.84 45.93 40.96 53.17 40.96C68.72 40.96 84.28 40.96 99.83 40.96C109.06 40.96 119.22 40.91 123.97 50.17C126.76 55.61 125.17 67.75 125.17 74.17C125.17 87.94 125.17 101.72 125.17 115.5C125.17 122.02 124.13 129.58 125.39 135.96ZM88.05 132.67C88.11 137.39 88.17 142.11 88.23 146.83C93.08 146.83 97.92 146.83 102.77 146.83C102.71 122.55 102.65 98.26 102.58 73.97C102.57 69.26 102.56 64.55 102.55 59.83C81.09 59.9 59.63 59.96 38.17 60.02C38.17 84.09 38.17 108.17 38.17 132.24C54.79 132.38 71.42 132.52 88.05 132.67Z" fill="#5492ce" fill-rule="evenodd" stroke="#5492ce" stroke-width="0.25" stroke-linejoin="round"/>
<path d="M519.93 135.96C518.83 141.41 516.32 149.87 511.04 152.85C507.26 154.99 503.06 154.51 498.83 154.51C491.61 154.51 484.39 154.51 477.17 154.51C446.8 154.51 416.51 154.88 386.17 154.88C376.72 154.88 367.28 154.88 357.83 154.88C352.79 154.88 347.46 155.38 342.5 154.49C352.02 153.12 353.1 143.51 355.19 135.96C410.1 135.96 465.01 135.96 519.93 135.96Z" fill="#d70927" fill-rule="evenodd" stroke="#d70927" stroke-width="0.25" stroke-linejoin="round"/>
<path d="M102.58 73.97C102.65 98.26 102.71 122.55 102.77 146.83C97.92 146.83 93.08 146.83 88.23 146.83C88.17 142.11 88.11 137.39 88.05 132.67C88.01 127.61 87.97 122.56 87.94 117.5C76.35 117.31 64.76 117.13 53.17 116.94C53.21 112.46 53.24 107.98 53.28 103.5C64.89 103.28 76.5 103.06 88.1 102.83C88.12 98.05 88.15 93.27 88.17 88.49C76.5 88.27 64.83 88.05 53.15 87.83C53.16 83.27 53.16 78.71 53.17 74.15C69.64 74.09 86.11 74.03 102.58 73.97Z" fill="#000000" fill-rule="evenodd" stroke="#000000" stroke-width="0.25" stroke-linejoin="round"/>
<path d="M187.67 50.27C173.22 50.27 158.78 50.27 144.33 50.27C145.71 48.81 151.08 49.7 153.17 49.7C161.5 49.7 169.83 49.7 178.17 49.7C180.36 49.7 186.23 48.75 187.67 50.27ZM386.27 51C386.27 76.33 386.27 101.67 386.27 127C385.02 125.91 385.65 113.09 385.65 110.5C385.65 95.61 385.65 80.72 385.65 65.83C385.65 63.4 385.03 52.08 386.27 51ZM451.73 51C452.98 52.09 452.35 64.91 452.35 67.5C452.35 82.39 452.35 97.28 452.35 112.17C452.35 114.6 452.97 125.92 451.73 127C451.73 101.67 451.73 76.33 451.73 51ZM160 66.02C160 71.01 160 75.99 160 80.98C160 75.99 160 71.01 160 66.02ZM160 97.02C160.07 102.01 160.15 107 160.23 111.99C159.3 111.64 159.65 109.62 159.65 108.5C159.65 106.18 158.97 98.55 160 97.02ZM270.27 108.33C270.27 113.44 270.27 118.56 270.27 123.67C269.42 122.87 269.42 109.13 270.27 108.33ZM160.23 111.99C165.01 110.49 176.93 111.7 182.5 111.7C184.33 111.7 188.45 110.98 189.67 112.27C179.85 112.18 170.04 112.09 160.23 111.99ZM87.67 117.92C76.33 117.92 65 117.92 53.67 117.92C65 117.92 76.33 117.92 87.67 117.92ZM373.67 174.27C367.22 174.27 360.78 174.27 354.33 174.27C355.47 173.07 366.73 173.7 369.17 173.7C370.57 173.7 372.72 173.27 373.67 174.27ZM499.67 174.27C493.56 174.27 487.44 174.27 481.33 174.27C482.46 173.08 493.13 173.7 495.5 173.7C496.85 173.7 498.76 173.31 499.67 174.27ZM348.67 200.73C355.48 200.73 362.29 200.73 369.1 200.73C367.7 202.09 355.92 201.35 353.17 201.35C351.74 201.35 349.62 201.79 348.67 200.73Z" fill="#cdcbcd" fill-rule="evenodd" stroke="#cdcbcd" stroke-width="0.25" stroke-linejoin="round"/>
</svg>
